<svg width="62" height="75" viewBox="0 0 62 75" fill="none" xmlns="http://www.w3.org/2000/svg">
<path d="M52.8058 65.604C47.0058 71.4033 39.1397 74.6612 30.9378 74.6612C22.7359 74.6612 14.8698 71.4033 9.06977 65.604C8.76977 65.304 8.48277 65.004 8.19477 64.695C6.66281 63.0322 5.31561 61.2082 4.17677 59.255C4.62777 59.402 5.07677 59.543 5.53077 59.673C5.54167 59.6779 5.55306 59.6816 5.56476 59.684H5.57677C6.05577 59.825 6.52977 59.96 7.00377 60.084C7.12277 60.113 7.23577 60.147 7.34877 60.184C7.79977 60.297 8.24877 60.41 8.70877 60.506C8.83456 60.5435 8.96244 60.5735 9.09176 60.596C9.43676 60.681 9.79177 60.754 10.1418 60.822C10.3848 60.873 10.6418 60.922 10.8758 60.969C11.2368 61.036 11.5918 61.099 11.9528 61.155C12.1908 61.2 12.4158 61.234 12.6588 61.262C12.9638 61.319 13.2738 61.362 13.5848 61.398C13.8548 61.443 14.1258 61.477 14.4028 61.505C14.7808 61.556 15.1588 61.595 15.5478 61.623C15.7058 61.646 15.8698 61.663 16.0388 61.674C16.4508 61.714 16.8628 61.742 17.2808 61.764C17.5008 61.781 17.7208 61.798 17.9518 61.804C18.1828 61.81 18.4318 61.832 18.6748 61.838C19.1258 61.86 19.5828 61.866 20.0408 61.872C20.097 61.877 20.1536 61.877 20.2098 61.872C20.6498 61.883 21.0958 61.872 21.5358 61.866C21.8358 61.872 22.1288 61.86 22.4158 61.843C22.7438 61.843 23.0648 61.827 23.3868 61.81C23.5728 61.804 23.7538 61.793 23.9288 61.776C24.3578 61.753 24.7868 61.719 25.2148 61.686C25.4348 61.669 25.6608 61.646 25.8808 61.618C26.1968 61.595 26.5078 61.567 26.8128 61.518C27.1128 61.49 27.4128 61.45 27.7038 61.405C27.9688 61.377 28.2348 61.337 28.4888 61.298C28.8268 61.253 29.1598 61.198 29.4888 61.14C29.8178 61.082 30.1658 61.027 30.5048 60.959C30.6607 60.9377 30.8153 60.9076 30.9678 60.869C31.4418 60.778 31.9158 60.677 32.3838 60.569C32.9711 60.445 33.5525 60.304 34.1278 60.146C34.3818 60.083 34.6278 60.016 34.8778 59.946C36.9006 59.387 38.8873 58.7047 40.8268 57.903C41.1028 57.796 41.3738 57.683 41.6448 57.559C41.9448 57.44 42.2368 57.305 42.5308 57.169C42.7738 57.062 43.0218 56.949 43.2648 56.831C43.5348 56.707 43.8058 56.571 44.0718 56.442C45.0418 55.967 45.9958 55.465 46.9328 54.923C47.1698 54.788 47.4008 54.658 47.6328 54.517C47.7858 54.432 47.9268 54.348 48.0738 54.257L48.7848 53.817C49.7498 53.217 50.6918 52.576 51.6228 51.904L52.2498 51.447L52.5318 51.233C52.7798 51.0523 53.0225 50.866 53.2598 50.674C53.6208 50.392 53.9818 50.11 54.3318 49.816C54.4318 49.743 54.5178 49.664 54.6088 49.585C54.8508 49.385 55.0938 49.179 55.3308 48.975C55.5678 48.771 55.8108 48.552 56.0478 48.338C56.2168 48.191 56.3808 48.038 56.5478 47.881C57.0898 47.3843 57.6201 46.8763 58.1388 46.357C58.4048 46.091 58.6638 45.832 58.9128 45.557C59.0478 45.422 59.1778 45.292 59.3078 45.151C59.7588 44.665 60.1988 44.18 60.6278 43.684L60.6448 43.667C60.7518 43.548 60.8598 43.43 60.9608 43.305C61.2488 42.972 61.5248 42.639 61.8078 42.305C61.8176 42.2955 61.8252 42.2839 61.8298 42.271C61.898 43.7239 61.8646 45.1798 61.7298 46.628V46.662C61.7298 46.6679 61.7277 46.6736 61.7238 46.678C61.0498 53.8338 57.8952 60.5288 52.8058 65.604Z" fill="url(#paint0_linear)"/>
<path d="M58.1445 46.36C51.3969 53.1125 42.9493 57.9153 33.6956 60.2601C24.442 62.6049 14.7266 62.4045 5.57751 59.68C5.56143 59.681 5.54541 59.6772 5.53151 59.669H5.52051C5.06951 59.533 4.62051 59.392 4.17751 59.251C2.82126 56.9237 1.78111 54.426 1.08451 51.824C0.57911 49.9438 0.250681 48.0204 0.103516 46.079C0.509516 46.068 0.910513 46.051 1.31651 46.028H1.32751C1.33663 46.0251 1.3464 46.0251 1.35551 46.028H1.36151C14.3997 45.3414 26.7199 39.8436 35.9385 30.598C39.9164 26.6219 43.2398 22.0412 45.7855 17.026V17.02C45.7965 17.009 45.8025 16.992 45.8135 16.981L45.8025 16.98C45.8086 16.9676 45.8163 16.9562 45.8255 16.946C46.0565 16.489 46.2825 16.026 46.4975 15.563L52.8065 21.873C58.2581 27.3093 61.4788 34.5883 61.8355 42.279C61.4515 42.753 61.0565 43.216 60.6505 43.679C59.8545 44.593 59.0195 45.485 58.1445 46.36Z" fill="url(#paint1_linear)"/>
<path d="M35.9381 30.598C35.5601 30.976 35.1761 31.348 34.7921 31.71C34.5441 31.947 34.2921 32.172 34.0421 32.404C33.0261 33.3287 31.9764 34.209 30.8931 35.045C30.6161 35.265 30.3401 35.474 30.0571 35.677C29.7191 35.937 29.3751 36.177 29.0251 36.428C28.6971 36.665 28.3701 36.89 28.0321 37.116C27.9521 37.172 27.8681 37.223 27.7891 37.28C27.5121 37.466 27.2241 37.652 26.9421 37.833C25.4744 38.7704 23.9601 39.6329 22.4051 40.417C22.1001 40.575 21.7961 40.722 21.4961 40.863C21.4623 40.8838 21.4264 40.9009 21.3891 40.914C21.0791 41.066 20.7801 41.207 20.4691 41.348C20.3791 41.394 20.2781 41.439 20.1761 41.484C19.8431 41.636 19.5101 41.777 19.1761 41.919C18.7981 42.082 18.4141 42.24 18.0301 42.387C17.6461 42.534 17.2351 42.697 16.8301 42.85C16.4581 42.985 16.0801 43.115 15.7131 43.25C15.3131 43.385 14.9281 43.515 14.5391 43.633C14.1501 43.751 13.7541 43.876 13.3591 43.989C12.9641 44.102 12.5691 44.215 12.1801 44.322C11.7911 44.429 11.3801 44.531 10.9801 44.622C10.5801 44.713 10.1851 44.808 9.78004 44.893C8.98004 45.067 8.18004 45.225 7.38004 45.361C6.58004 45.497 5.76604 45.609 4.95904 45.716C3.75904 45.857 2.55904 45.965 1.34704 46.032H1.34104C1.33004 46.032 1.33004 46.032 1.32404 46.032C1.32338 46.0328 1.32255 46.0335 1.32159 46.034C1.32064 46.0344 1.3196 46.0347 1.31854 46.0347C1.31748 46.0347 1.31643 46.0344 1.31548 46.034C1.31453 46.0335 1.31369 46.0328 1.31304 46.032C0.90704 46.055 0.495041 46.072 0.0890408 46.083C-0.03662 44.4297 -0.0292636 42.7691 0.11104 41.117C0.11636 41.1006 0.118399 41.0832 0.117041 41.066C0.733445 33.8106 3.90047 27.0081 9.05604 21.866L30.9381 0L46.4961 15.558C46.2811 16.021 46.0611 16.478 45.8241 16.93V16.941C45.8149 16.9512 45.8071 16.9627 45.8011 16.975L45.8071 16.981L45.7901 16.997C45.7867 16.9998 45.7839 17.0033 45.782 17.0073C45.7801 17.0112 45.7791 17.0156 45.7791 17.02V17.026C45.7629 17.0524 45.7498 17.0806 45.7401 17.11L45.5881 17.398C45.1854 18.186 44.7547 18.9667 44.2961 19.74C43.9961 20.265 43.6751 20.79 43.3481 21.309C42.7561 22.251 42.1261 23.186 41.4581 24.114C41.2941 24.334 41.1421 24.554 40.9721 24.768C40.5721 25.304 40.1651 25.835 39.7421 26.36C39.5901 26.56 39.4261 26.76 39.2621 26.941C38.9691 27.302 38.6621 27.658 38.3541 28.008C37.5821 28.894 36.7767 29.7573 35.9381 30.598Z" fill="url(#paint2_linear)"/>
<g style="mix-blend-mode:multiply" opacity="0.15">
<g style="mix-blend-mode:multiply" opacity="0.15">
<path d="M1.08451 51.8281C0.57911 49.9479 0.250681 48.0245 0.103516 46.0831C13.5892 45.6939 26.4133 40.1524 35.9385 30.5981C40.3048 26.2361 43.8776 21.1467 46.4965 15.5581C46.4965 15.5581 40.9835 40.7331 1.08451 51.8281Z" fill="black"/>
</g>
</g>
<g style="mix-blend-mode:multiply" opacity="0.15">
<g style="mix-blend-mode:multiply" opacity="0.15">
<path d="M8.19573 64.695C6.66378 63.0322 5.31658 61.2082 4.17773 59.255C13.4866 62.3027 23.458 62.7106 32.9847 60.4334C42.5114 58.1562 51.2204 53.283 58.1448 46.355C59.4433 45.0563 60.6753 43.6925 61.8358 42.269C61.8358 42.269 46.4458 69.39 8.19573 64.695Z" fill="black"/>
</g>
</g>
<g style="mix-blend-mode:multiply" opacity="0.25">
<g style="mix-blend-mode:multiply" opacity="0.25">
<path d="M55.6783 49.1871C55.1823 49.6164 54.6633 50.0677 54.1213 50.5411C53.5733 50.9991 53.0323 51.5411 52.3993 51.9811C51.7793 52.4431 51.1303 52.9231 50.4693 53.4141C49.8203 53.9281 49.0813 54.3391 48.3593 54.8141C47.6253 55.3115 46.8641 55.7675 46.0793 56.1801C45.2793 56.6041 44.4793 57.0321 43.6583 57.4731C42.8173 57.8621 41.9583 58.2341 41.0853 58.6131C40.2273 59.0191 39.3133 59.3011 38.4153 59.6341L37.0613 60.1191C36.6043 60.2721 36.1353 60.3901 35.6733 60.5261C34.7473 60.7631 33.8273 61.0731 32.8853 61.2481C31.9483 61.4401 31.0113 61.6321 30.0803 61.8181C28.2524 62.1146 26.4102 62.3149 24.5613 62.4181C22.8344 62.5184 21.1035 62.5317 19.3753 62.4581C18.5513 62.3901 17.7493 62.3221 16.9753 62.2581C16.5913 62.2241 16.2133 62.1851 15.8413 62.1511C15.4743 62.1001 15.1073 62.0381 14.7573 61.9821C14.0463 61.8691 13.3753 61.7611 12.7263 61.6541C12.0773 61.5471 11.4843 61.3721 10.9143 61.2541C9.78627 60.9711 8.79827 60.7631 8.00227 60.4861C6.51827 60.0181 5.63827 59.7131 5.53027 59.6741C5.54417 59.6822 5.56019 59.6861 5.57627 59.6851C14.7259 62.4091 24.4418 62.6089 33.6957 60.2632C42.9495 57.9175 51.3971 53.1137 58.1443 46.3601C59.0193 45.4851 59.8543 44.5931 60.6503 43.6741C60.5263 43.8311 59.9503 44.5431 59.0143 45.6601C58.7313 45.9761 58.4723 46.3261 58.0943 46.7041L56.9653 47.8671L55.6783 49.1871Z" fill="black"/>
</g>
</g>
<g style="mix-blend-mode:multiply" opacity="0.25">
<g style="mix-blend-mode:multiply" opacity="0.25">
<path d="M1.35515 46.027H1.36115C1.34415 46.033 1.33815 46.027 1.32715 46.027C1.33626 46.0242 1.34603 46.0242 1.35515 46.027Z" fill="black"/>
</g>
</g>
<g style="mix-blend-mode:multiply" opacity="0.25">
<g style="mix-blend-mode:multiply" opacity="0.25">
<path d="M45.8082 16.9799C45.7992 16.9942 45.7915 17.0093 45.7852 17.0249V17.0189C45.7852 17.0019 45.8022 16.9909 45.8072 16.9739C45.8132 16.9616 45.821 16.9502 45.8302 16.9399C45.8302 16.9399 45.8192 16.9579 45.8082 16.9799Z" fill="black"/>
</g>
</g>
<g style="mix-blend-mode:multiply" opacity="0.25">
<g style="mix-blend-mode:multiply" opacity="0.25">
<path d="M35.9264 31.5799C34.7322 32.7941 33.4719 33.9415 32.1514 35.0169C30.7933 36.1291 29.3787 37.1704 27.9134 38.1369C27.1684 38.6229 26.4234 39.0969 25.6564 39.5259L24.5164 40.1799C24.1264 40.3799 23.7424 40.5799 23.3534 40.7799C22.9644 40.9799 22.5804 41.1799 22.1964 41.3729C21.8074 41.5479 21.4124 41.7289 21.0284 41.8979C20.2494 42.2589 19.4704 42.5639 18.6974 42.8629C17.9304 43.1789 17.1624 43.4389 16.4064 43.6869C15.6504 43.9349 14.8994 44.1549 14.1714 44.3529C13.4494 44.5669 12.7384 44.7475 12.0384 44.8949C11.3444 45.0469 10.6724 45.1949 10.0234 45.3059C9.37432 45.4169 8.75433 45.5379 8.16133 45.6109C7.56833 45.6839 6.99932 45.7469 6.46832 45.8029C5.40232 45.9099 4.46833 45.9499 3.70933 46.0119C2.37133 46.0399 1.54133 46.0339 1.36133 46.0339C14.4003 45.3457 26.7206 39.8456 35.9384 30.5979C39.9162 26.6218 43.2397 22.0411 45.7854 17.0259C45.7464 17.1259 45.6734 17.2849 45.5714 17.5259C45.4134 17.8989 45.1714 18.4519 44.8324 19.1349C43.8985 21.0389 42.835 22.8766 41.6494 24.6349C40.8603 25.8165 40.0125 26.958 39.1094 28.0549C38.1174 29.2904 37.0546 30.4674 35.9264 31.5799Z" fill="black"/>
</g>
</g>
<g style="mix-blend-mode:screen" opacity="0.4">
<g style="mix-blend-mode:screen" opacity="0.4">
<path d="M58.1442 46.36C51.3965 53.1125 42.9489 57.9153 33.6953 60.2601C24.4416 62.6049 14.7262 62.4045 5.57715 59.68C5.79715 59.719 6.68815 59.889 8.08215 60.18C8.88215 60.38 9.88815 60.496 11.0222 60.66C12.1572 60.86 13.4552 60.948 14.8542 61.072C15.2102 61.1 15.5712 61.134 15.9322 61.172C16.2992 61.178 16.6712 61.189 17.0502 61.195C17.8112 61.223 18.5962 61.24 19.4032 61.268C21.0112 61.195 22.7102 61.211 24.4592 61.008C26.2142 60.908 27.9922 60.568 29.8152 60.303C30.7178 60.111 31.6225 59.9173 32.5292 59.722C33.4432 59.541 34.3292 59.231 35.2292 58.994C35.6812 58.87 36.1382 58.762 36.5782 58.616L37.8992 58.153C38.7732 57.842 39.6652 57.583 40.5062 57.193C41.3472 56.838 42.1882 56.482 43.0232 56.132C43.8302 55.732 44.6312 55.332 45.4162 54.947C46.2162 54.586 46.9392 54.101 47.6792 53.7C48.4122 53.271 49.1522 52.9 49.8062 52.43C51.1442 51.53 52.4422 50.72 53.5362 49.84C54.1012 49.423 54.6432 49.016 55.1562 48.627C55.6562 48.209 56.1212 47.808 56.5562 47.436C56.9912 47.064 57.4082 46.708 57.7872 46.386C58.1532 46.086 58.4752 45.732 58.7802 45.45C59.8292 44.434 60.4952 43.813 60.6422 43.678C59.8542 44.593 59.0192 45.485 58.1442 46.36Z" fill="white"/>
</g>
</g>
<g style="mix-blend-mode:screen" opacity="0.4">
<g style="mix-blend-mode:screen" opacity="0.4">
<path d="M35.9382 30.5981C26.7201 39.8451 14.3999 45.3445 1.36115 46.0321C1.34415 46.0381 1.33815 46.0321 1.32715 46.0321C1.33626 46.0293 1.34603 46.0293 1.35515 46.0321C1.54115 46.0041 2.36615 45.8791 3.69215 45.7051C4.43715 45.5691 5.34515 45.4391 6.37815 45.2191C7.41115 44.9991 8.57815 44.7451 9.82615 44.4121C10.4582 44.2651 11.1012 44.0741 11.7672 43.8701C12.4332 43.6661 13.1272 43.4701 13.8272 43.2211C14.5322 42.9901 15.2492 42.7471 15.9722 42.4541C16.6952 42.1611 17.4392 41.9011 18.1672 41.5681C18.9122 41.2521 19.6622 40.9301 20.4022 40.5521C21.1472 40.2021 21.9022 39.8241 22.6362 39.4231C23.0152 39.2231 23.3872 39.0231 23.7652 38.8231L24.8652 38.1741C25.6042 37.7511 26.3212 37.2831 27.0322 36.8091C28.466 35.8826 29.8521 34.8844 31.1852 33.8181C32.5002 32.7621 33.7752 31.6901 34.9442 30.5781C37.0943 28.5678 39.09 26.3983 40.9142 24.0881C42.2186 22.452 43.434 20.7469 44.5552 18.9801C45.2212 17.9421 45.6442 17.2481 45.7802 17.0221C45.7802 17.0051 45.7972 16.9941 45.8022 16.9771C45.8082 16.9648 45.816 16.9533 45.8252 16.9431C45.8252 16.9431 45.8192 16.9601 45.8082 16.9831C45.7992 16.9974 45.7915 17.0124 45.7852 17.0281C43.2393 22.0426 39.9158 26.6226 35.9382 30.5981Z" fill="white"/>
</g>
</g>
<g style="mix-blend-mode:multiply" opacity="0.25">
<g style="mix-blend-mode:multiply" opacity="0.25">
<path d="M52.8063 65.604C47.0063 71.4033 39.1403 74.6612 30.9383 74.6612C22.7364 74.6612 14.8704 71.4033 9.07031 65.604C9.07031 65.604 9.27931 65.779 9.67031 66.104C10.0593 66.448 10.6633 66.894 11.4193 67.47C12.1923 68.028 13.1523 68.67 14.2803 69.349C15.5563 70.0777 16.8735 70.7314 18.2253 71.307C19.8248 71.9668 21.474 72.4991 23.1573 72.899C25.0272 73.3283 26.9306 73.596 28.8463 73.699C30.8897 73.801 32.9381 73.7066 34.9633 73.417C37.0515 73.1304 39.1027 72.6195 41.0813 71.893C43.0688 71.1845 44.9771 70.2709 46.7753 69.167C48.5175 68.0965 50.1532 66.8619 51.6603 65.48C53.0725 64.1772 54.3681 62.7534 55.5323 61.225C56.5737 59.8461 57.502 58.3853 58.3083 56.857C58.9932 55.5543 59.5928 54.2085 60.1033 52.828C60.5433 51.586 60.8813 50.48 61.1133 49.56C61.3453 48.64 61.5083 47.901 61.5933 47.399C61.6603 47.015 61.7053 46.778 61.7283 46.676C61.0538 53.8331 57.8976 60.5289 52.8063 65.604Z" fill="black"/>
</g>
</g>
<g style="mix-blend-mode:screen" opacity="0.4">
<g style="mix-blend-mode:screen" opacity="0.4">
<path d="M33.974 4.018L30.966 1.156L26.948 5.31C25.43 6.884 23.872 8.431 22.332 9.994C20.792 11.557 19.245 13.103 17.687 14.638C16.129 16.173 14.587 17.731 13.003 19.255L10.639 21.54L9.48193 22.675C9.09793 23.075 8.69193 23.453 8.34693 23.843C7.61841 24.6186 6.93369 25.4342 6.29593 26.286C5.65293 27.144 5.05993 28.041 4.49593 28.956C3.93666 29.8718 3.4279 30.8176 2.97193 31.789C2.50393 32.765 2.09693 33.769 1.72493 34.789C1.38093 35.811 1.03593 36.843 0.781933 37.91C0.516933 38.943 0.30793 40.01 0.12793 41.07C0.744334 33.8146 3.91136 27.0121 9.06693 21.87L30.938 0L45.046 14.108C42.524 11.924 40.074 9.678 37.625 7.421L33.974 4.018Z" fill="white"/>
</g>
</g>
<defs>
<linearGradient id="paint0_linear" x1="-264.877" y1="-153.981" x2="-271.005" y2="-110.967" gradientUnits="userSpaceOnUse">
<stop stop-color="#3E6896"/>
<stop offset="0.247" stop-color="#355881"/>
<stop offset="0.75" stop-color="#1F324E"/>
<stop offset="1" stop-color="#131D32"/>
</linearGradient>
<linearGradient id="paint1_linear" x1="-290.222" y1="-168.232" x2="-290.222" y2="-115.66" gradientUnits="userSpaceOnUse">
<stop stop-color="#5F2C82"/>
<stop offset="0.04" stop-color="#5D3283"/>
<stop offset="0.35" stop-color="#54618E"/>
<stop offset="0.625" stop-color="#4E8396"/>
<stop offset="0.851" stop-color="#4A989B"/>
<stop offset="1" stop-color="#49A09D"/>
</linearGradient>
<linearGradient id="paint2_linear" x1="-309.152" y1="-171.659" x2="-309.152" y2="-114.977" gradientUnits="userSpaceOnUse">
<stop stop-color="#0098BA"/>
<stop offset="0.017" stop-color="#009BBC"/>
<stop offset="0.19" stop-color="#00BAD4"/>
<stop offset="0.371" stop-color="#00D3E7"/>
<stop offset="0.56" stop-color="#00E5F4"/>
<stop offset="0.762" stop-color="#00EFFC"/>
<stop offset="1" stop-color="#00F3FF"/>
</linearGradient>
</defs>
</svg>
